<svg version="1.1" xmlns="http://www.w3.org/2000/svg" xmlns:xlink="http://www.w3.org/1999/xlink" role="img" width="151" height="90" viewbox="0 0 151 90"><title>crow</title><desc>Generated by logo.svg, https://github.com/bubkoo/logo.svg</desc><path fill="#2b68a7" d="M16.23 70.99Q12.78 70.99 9.96 69.52Q7.14 68.05 5.45 65.14Q3.75 62.22 3.75 57.74Q3.75 54.22 4.97 50.32Q6.18 46.42 8.62 43.02Q11.05 39.63 14.60 37.52Q18.15 35.41 22.82 35.41Q27.62 35.41 29.90 37.30Q32.17 39.18 32.17 41.55Q32.17 43.34 30.70 44.69Q29.22 46.03 26.47 46.03Q26.47 42.96 25.29 40.72Q24.10 38.48 21.54 38.48Q19.50 38.48 17.77 39.86Q16.04 41.23 14.66 43.44Q13.29 45.65 12.36 48.30Q11.43 50.96 10.92 53.58Q10.41 56.21 10.41 58.26Q10.41 62.42 12.20 64.69Q13.99 66.96 17.45 66.96Q20.84 66.96 23.08 65.49Q25.32 64.02 26.66 62.35Q27.30 62.80 27.30 63.95Q27.30 65.36 26.12 66.99Q24.94 68.62 22.50 69.81Q20.07 70.99 16.23 70.99ZM34.98 70.35L40.36 44.62Q40.55 43.73 40.65 42.90Q40.74 42.06 40.74 41.74Q40.74 39.82 39.08 39.28Q37.42 38.74 35.62 38.74L35.11 38.74L35.69 36.05L47.02 36.05L45.67 45.26L46.31 45.26Q47.53 42.64 48.94 40.40Q50.34 38.16 52.33 36.78Q54.31 35.41 57.19 35.41Q59.88 35.41 61.16 36.66Q62.44 37.90 62.44 39.82Q62.44 42.06 61.19 43.38Q59.94 44.69 57.13 44.69Q57.13 42.38 56.62 41.01Q56.10 39.63 54.57 39.63Q52.90 39.63 51.21 41.36Q49.51 43.09 48.01 45.94Q46.50 48.78 45.29 52.14Q44.07 55.50 43.37 58.70L40.94 70.35L34.98 70.35ZM75.88 70.99Q70.44 70.99 67.02 67.70Q63.59 64.40 63.59 57.74Q63.59 54.22 64.74 50.32Q65.90 46.42 68.26 43.02Q70.63 39.63 74.22 37.52Q77.80 35.41 82.66 35.41Q86.06 35.41 88.81 36.75Q91.56 38.10 93.19 41.04Q94.82 43.98 94.82 48.66Q94.82 51.41 94.12 54.45Q93.42 57.49 91.94 60.43Q90.47 63.38 88.23 65.74Q85.99 68.11 82.89 69.55Q79.78 70.99 75.88 70.99M76.58 67.73Q79.72 67.73 81.93 65.71Q84.14 63.70 85.51 60.53Q86.89 57.36 87.53 53.90Q88.17 50.45 88.17 47.57Q88.17 42.77 86.50 40.72Q84.84 38.67 81.90 38.67Q79.40 38.67 77.48 40.02Q75.56 41.36 74.18 43.57Q72.81 45.78 71.94 48.46Q71.08 51.15 70.66 53.87Q70.25 56.59 70.25 58.90Q70.25 63.76 71.98 65.74Q73.70 67.73 76.58 67.73ZM126.31 70.99Q126.31 68.05 126.18 64.11Q126.06 60.18 125.86 56.08Q125.67 51.98 125.54 48.59Q125.42 45.20 125.35 43.28Q125.03 44.18 124.04 46.26Q123.05 48.34 121.70 51.09Q120.36 53.84 118.82 56.82Q117.29 59.79 115.88 62.54Q114.47 65.30 113.38 67.31Q112.30 69.33 111.85 70.16L105.26 70.93L104.81 43.34Q104.74 40.40 103.59 39.57Q102.44 38.74 100.58 38.74L99.94 38.74L100.84 36.05L110.44 36.05Q110.50 40.53 110.57 45.65Q110.63 50.77 110.66 55.82Q110.70 60.88 110.70 65.23L110.95 65.23Q112.49 62.61 114.31 59.15Q116.14 55.70 118.09 51.86Q120.04 48.02 121.86 44.08Q123.69 40.14 125.16 36.62L130.47 36.37Q130.66 38.29 130.86 41.33Q131.05 44.37 131.21 47.92Q131.37 51.47 131.50 54.93Q131.62 58.38 131.72 61.23Q131.82 64.08 131.82 65.68L132.26 65.68Q134.44 63.06 136.55 59.98Q138.66 56.91 140.42 53.81Q142.18 50.70 143.24 47.92Q144.30 45.14 144.30 43.02Q144.30 41.42 143.56 40.53Q142.82 39.63 141.54 39.18Q141.74 37.65 142.73 36.53Q143.72 35.41 145.32 35.41Q146.92 35.41 147.82 36.59Q148.71 37.78 148.71 40.21Q148.71 43.98 146.70 48.53Q144.68 53.07 141.03 58.45Q137.38 63.82 132.65 70.29L126.31 70.99Z"></path></svg>